<svg width="173" height="173" viewBox="0 0 173 173" fill="none" xmlns="http://www.w3.org/2000/svg">
<circle cx="86.5" cy="86.5" r="84.5" stroke="#D2A461" stroke-width="4"/>
<path d="M87 37C59.3884 37 37 59.9687 37 88.2723C37 110.929 51.3304 130.125 71.1964 136.911C71.4751 136.971 71.7595 137.001 72.0446 137C73.8973 137 74.6116 135.638 74.6116 134.455C74.6116 133.228 74.567 130.013 74.5446 125.728C72.8907 126.115 71.1987 126.318 69.5 126.33C59.8795 126.33 57.692 118.853 57.692 118.853C55.4152 112.937 52.1339 111.353 52.1339 111.353C47.7813 108.295 52.1116 108.205 52.4464 108.205H52.4688C57.4911 108.652 60.125 113.518 60.125 113.518C62.625 117.893 65.9732 119.121 68.9643 119.121C70.942 119.081 72.8892 118.625 74.6786 117.781C75.125 114.478 76.4196 112.223 77.8482 110.929C66.7545 109.634 55.0804 105.237 55.0804 85.5937C55.0804 79.9911 57.0223 75.4152 60.2143 71.8437C59.7009 70.5491 57.9821 65.3259 60.7054 58.2723C61.0706 58.1848 61.4461 58.1473 61.8214 58.1607C63.6295 58.1607 67.7143 58.8527 74.4554 63.5402C82.6463 61.2483 91.3091 61.2483 99.5 63.5402C106.241 58.8527 110.326 58.1607 112.134 58.1607C112.509 58.1473 112.885 58.1848 113.25 58.2723C115.973 65.3259 114.254 70.5491 113.741 71.8437C116.933 75.4375 118.875 80.0134 118.875 85.5937C118.875 105.281 107.179 109.612 96.0402 110.884C97.8259 112.469 99.433 115.594 99.433 120.371C99.433 127.223 99.3661 132.759 99.3661 134.433C99.3661 135.638 100.058 137 101.911 137C102.211 137.001 102.51 136.971 102.804 136.911C122.692 130.125 137 110.906 137 88.2723C137 59.9687 114.612 37 87 37Z" fill="#D2A461"/>
</svg>
