<svg width="97" height="93" viewBox="0 0 97 93" fill="none" xmlns="http://www.w3.org/2000/svg">
<path d="M9.15591 0H87.8441C90.2724 0 92.6012 1.06551 94.3183 2.96213C96.0354 4.85874 97 7.43111 97 10.1133C97 12.7955 96.0354 15.3679 94.3183 17.2645C92.6012 19.1611 90.2724 20.2267 87.8441 20.2267H9.15591C6.72761 20.2267 4.39877 19.1611 2.6817 17.2645C0.964638 15.3679 2.72867e-07 12.7955 2.72867e-07 10.1133C2.72867e-07 7.43111 0.964638 4.85874 2.6817 2.96213C4.39877 1.06551 6.72761 0 9.15591 0ZM9.15591 36.3847H87.8441C89.0465 36.3847 90.2371 36.6463 91.3479 37.1546C92.4588 37.6628 93.4681 38.4078 94.3183 39.3469C95.1685 40.286 95.8429 41.4009 96.303 42.6279C96.7632 43.8549 97 45.17 97 46.4981C97 47.8262 96.7632 49.1413 96.303 50.3683C95.8429 51.5953 95.1685 52.7102 94.3183 53.6493C93.4681 54.5884 92.4588 55.3333 91.3479 55.8416C90.2371 56.3498 89.0465 56.6114 87.8441 56.6114H9.15591C7.95354 56.6114 6.76294 56.3498 5.65209 55.8416C4.54125 55.3333 3.53191 54.5884 2.6817 53.6493C1.8315 52.7102 1.15708 51.5953 0.696952 50.3683C0.236825 49.1413 7.9921e-08 47.8262 7.9921e-08 46.4981C7.9921e-08 45.17 0.236825 43.8549 0.696952 42.6279C1.15708 41.4009 1.8315 40.286 2.6817 39.3469C3.53191 38.4078 4.54125 37.6628 5.65209 37.1546C6.76294 36.6463 7.95354 36.3847 9.15591 36.3847ZM9.15591 72.7733H87.8441C89.0465 72.7733 90.2371 73.0349 91.3479 73.5432C92.4588 74.0514 93.4681 74.7964 94.3183 75.7355C95.1685 76.6746 95.8429 77.7895 96.303 79.0165C96.7632 80.2435 97 81.5586 97 82.8867C97 84.2148 96.7632 85.5299 96.303 86.7569C95.8429 87.9839 95.1685 89.0988 94.3183 90.0379C93.4681 90.977 92.4588 91.7219 91.3479 92.2302C90.2371 92.7384 89.0465 93 87.8441 93H9.15591C7.95354 93 6.76294 92.7384 5.65209 92.2302C4.54125 91.7219 3.53191 90.977 2.6817 90.0379C1.8315 89.0988 1.15708 87.9839 0.696952 86.7569C0.236825 85.5299 0 84.2148 0 82.8867C0 81.5586 0.236825 80.2435 0.696952 79.0165C1.15708 77.7895 1.8315 76.6746 2.6817 75.7355C3.53191 74.7964 4.54125 74.0514 5.65209 73.5432C6.76294 73.0349 7.95354 72.7733 9.15591 72.7733Z" fill="#D2A461"/>
</svg>
