<svg width="173" height="173" viewBox="0 0 173 173" fill="none" xmlns="http://www.w3.org/2000/svg">
<circle cx="86.5" cy="86.5" r="84.5" stroke="#D2A461" stroke-width="4"/>
<path d="M125.889 37C128.836 37 131.662 38.1706 133.746 40.2544C135.829 42.3381 137 45.1643 137 48.1111V125.889C137 128.836 135.829 131.662 133.746 133.746C131.662 135.829 128.836 137 125.889 137H48.1111C45.1643 137 42.3381 135.829 40.2544 133.746C38.1706 131.662 37 128.836 37 125.889V48.1111C37 45.1643 38.1706 42.3381 40.2544 40.2544C42.3381 38.1706 45.1643 37 48.1111 37H125.889ZM123.111 123.111V93.6667C123.111 88.8633 121.203 84.2567 117.806 80.8602C114.41 77.4637 109.803 75.5556 105 75.5556C100.278 75.5556 94.7778 78.4444 92.1111 82.7778V76.6111H76.6111V123.111H92.1111V95.7222C92.1111 91.4444 95.5556 87.9444 99.8333 87.9444C101.896 87.9444 103.874 88.7639 105.333 90.2225C106.792 91.6811 107.611 93.6594 107.611 95.7222V123.111H123.111ZM58.5556 67.8889C61.0309 67.8889 63.4049 66.9056 65.1552 65.1552C66.9056 63.4049 67.8889 61.0309 67.8889 58.5556C67.8889 53.3889 63.7222 49.1667 58.5556 49.1667C56.0655 49.1667 53.6774 50.1558 51.9166 51.9166C50.1558 53.6774 49.1667 56.0655 49.1667 58.5556C49.1667 63.7222 53.3889 67.8889 58.5556 67.8889ZM66.2778 123.111V76.6111H50.8889V123.111H66.2778Z" fill="#D2A461"/>
</svg>
