<svg width="173" height="173" viewBox="0 0 173 173" fill="none" xmlns="http://www.w3.org/2000/svg">
<circle cx="86.5" cy="86.5" r="84.5" stroke="#D2A461" stroke-width="4"/>
<path d="M116.05 103.32C111.63 103.318 107.385 105.038 104.226 108.11L73.4323 90.9087C74.0649 88.3144 74.0649 85.6075 73.4323 83.0132L104.216 65.8122C107.092 68.5915 110.87 70.263 114.873 70.5276C118.876 70.7922 122.843 69.6326 126.065 67.2564C129.286 64.8801 131.55 61.4424 132.453 57.5586C133.356 53.6749 132.838 49.5987 130.992 46.0598C129.145 42.5209 126.092 39.7504 122.377 38.2442C118.663 36.7381 114.53 36.5946 110.718 37.8396C106.907 39.0845 103.666 41.6365 101.576 45.0388C99.4857 48.4411 98.6826 52.4714 99.3103 56.4083L67.8 74.0182C65.325 71.9694 62.3136 70.6639 59.1185 70.2544C55.9235 69.845 52.6772 70.3486 49.7599 71.7063C46.8426 73.064 44.3751 75.2195 42.6466 77.9204C40.918 80.6212 40 83.7555 40 86.9561C40 90.1567 40.918 93.291 42.6466 95.9919C44.3751 98.6927 46.8426 100.848 49.7599 102.206C52.6772 103.564 55.9235 104.067 59.1185 103.658C62.3136 103.248 65.325 101.943 67.8 99.8941L99.3103 117.514C98.7656 120.915 99.2836 124.4 100.794 127.5C102.305 130.599 104.736 133.164 107.76 134.848C110.783 136.533 114.254 137.256 117.704 136.92C121.154 136.584 124.417 135.205 127.053 132.969C129.69 130.733 131.574 127.748 132.45 124.416C133.326 121.084 133.153 117.565 131.953 114.334C130.754 111.103 128.587 108.315 125.743 106.345C122.899 104.376 119.516 103.32 116.05 103.32Z" fill="#D2A461"/>
</svg>
